<svg width="26" height="22" viewBox="0 0 26 22" fill="none" xmlns="http://www.w3.org/2000/svg">
<path d="M5.26219 19.0596H7.44665L5.84654 21.3701C5.67878 21.6117 5.40346 21.7562 5.10926 21.7566C4.92584 21.7562 4.74705 21.6996 4.59674 21.5949C4.40149 21.4586 4.26825 21.2507 4.22611 21.0165C4.18397 20.7821 4.23654 20.5407 4.37199 20.3451L5.26219 19.0596Z" fill="#251605"/>
<path d="M21.8038 21.5949C21.6535 21.6996 21.4747 21.7562 21.2913 21.7566C20.9971 21.7562 20.7218 21.6117 20.554 21.3701L18.9539 19.0596H21.1383L22.0373 20.345C22.1722 20.5419 22.2231 20.7839 22.1794 21.0183C22.1354 21.2526 22.0004 21.4599 21.8037 21.5948L21.8038 21.5949Z" fill="#251605"/>
<path d="M3.31101 0.180664H23.089C24.5786 0.180664 25.786 1.67023 25.786 2.87766V15.4637C25.786 16.9532 24.5786 18.1606 23.089 18.1606H3.31101C1.82145 18.1606 0.614014 16.6711 0.614014 15.4637V2.87766C0.614014 1.3881 1.82145 0.180664 3.31101 0.180664Z" fill="#251605"/>
</svg>



