<svg width="27" height="27" viewBox="0 0 27 27" fill="none" xmlns="http://www.w3.org/2000/svg">
<path fill-rule="evenodd" clip-rule="evenodd" d="M11.7533 23.826C11.7533 24.5928 12.0585 25.3293 12.601 25.8718C13.1435 26.4143 13.8798 26.7194 14.6465 26.7194H23.3265C24.0933 26.7194 24.8298 26.4143 25.3723 25.8718C25.9148 25.3293 26.2199 24.5928 26.2199 23.826V18.0394C26.2199 17.2727 25.9148 16.5364 25.3723 15.9939C24.8298 15.4514 24.0933 15.146 23.3265 15.146H14.6465C13.8798 15.146 13.1435 15.4514 12.601 15.9939C12.0585 16.5364 11.7533 17.2727 11.7533 18.0394V23.826ZM5.96652 15.146H3.07335C2.30659 15.146 1.5701 15.4514 1.0276 15.9939C0.485095 16.5364 0.179932 17.2727 0.179932 18.0394V23.826C0.179932 24.5928 0.485089 25.3293 1.0276 25.8718C1.5701 26.4143 2.30659 26.7194 3.07335 26.7194H5.96652C6.73327 26.7194 7.46977 26.4143 8.01227 25.8718C8.55477 25.3293 8.85993 24.5928 8.85993 23.826V18.0394C8.85993 17.2727 8.55477 16.5364 8.01227 15.9939C7.46976 15.4514 6.73327 15.146 5.96652 15.146ZM26.2201 3.5731C26.2201 2.80635 25.9149 2.06985 25.3724 1.52735C24.8299 0.984852 24.0934 0.679688 23.3266 0.679688H3.07372C2.30697 0.679688 1.57047 0.984846 1.02797 1.52735C0.485467 2.06986 0.180303 2.80635 0.180303 3.5731V9.35969C0.180303 10.1264 0.485461 10.8627 1.02797 11.4052C1.57047 11.9477 2.30697 12.2531 3.07372 12.2531H23.3266C24.9253 12.2531 26.2201 10.9584 26.2201 9.35969V3.5731Z" fill="#251605"/>
</svg>
