<svg width="31" height="32" viewBox="0 0 31 32" fill="none" xmlns="http://www.w3.org/2000/svg">
<path fill-rule="evenodd" clip-rule="evenodd" d="M25.5 31.833C26.7598 31.833 27.968 31.3326 28.8588 30.4418C29.7496 29.551 30.25 28.3428 30.25 27.083L30.25 4.91634C30.25 3.65656 29.7496 2.44838 28.8588 1.55758C27.968 0.666786 26.7598 0.166344 25.5 0.166344H16C14.7402 0.166344 13.532 0.666786 12.6412 1.55758C11.7504 2.44838 11.25 3.65656 11.25 4.91634L11.25 27.083C11.25 28.3428 11.7504 29.551 12.6412 30.4418C13.532 31.3326 14.7402 31.833 16 31.833H25.5ZM9.20275 23.4524C8.90583 23.7493 8.50318 23.916 8.08333 23.916C7.66349 23.916 7.26084 23.7493 6.96392 23.4524L0.630583 17.1191C0.333754 16.8222 0.167006 16.4195 0.167006 15.9997C0.167006 15.5798 0.333754 15.1772 0.630583 14.8803L6.96392 8.54692C7.26254 8.25851 7.66249 8.09892 8.07764 8.10252C8.49278 8.10613 8.8899 8.27265 9.18346 8.56621C9.47703 8.85978 9.64355 9.2569 9.64715 9.67204C9.65076 10.0872 9.49117 10.4871 9.20275 10.7858L5.57217 14.4163L19.1667 14.4163C19.5866 14.4163 19.9893 14.5832 20.2863 14.8801C20.5832 15.177 20.75 15.5798 20.75 15.9997C20.75 16.4196 20.5832 16.8223 20.2863 17.1193C19.9893 17.4162 19.5866 17.583 19.1667 17.583L5.57217 17.583L9.20275 21.2136C9.49958 21.5105 9.66633 21.9132 9.66633 22.333C9.66633 22.7529 9.49958 23.1555 9.20275 23.4524Z" fill="#FFA500"/>
</svg>
