<svg width="29" height="21" viewBox="0 0 29 21" fill="none" xmlns="http://www.w3.org/2000/svg">
<path d="M27.9303 1.80248C26.1986 1.07614 24.4656 0.799805 22.7334 0.799805C17.2348 0.799358 11.7366 3.58284 6.2379 3.58284C4.85888 3.58284 3.48075 3.40784 2.10174 2.97034C1.94683 2.92123 1.79147 2.89802 1.63968 2.89802C0.87138 2.89802 0.199951 3.49266 0.199951 4.31811V18.4815C0.199951 19.0453 0.522719 19.5797 1.04102 19.7967C2.77272 20.5235 4.50575 20.7998 6.2379 20.7998C11.7366 20.7998 17.2352 18.0163 22.7339 18.0163C24.1129 18.0163 25.491 18.1913 26.87 18.6288C27.0249 18.6779 27.1803 18.7011 27.3321 18.7011C28.1004 18.7011 28.7718 18.1065 28.7718 17.2811V3.11811C28.7714 2.55382 28.4486 2.01989 27.9303 1.80248ZM2.34281 5.27391C3.24102 5.49891 4.17852 5.61186 5.14281 5.67257C4.88031 6.98463 3.72674 7.97347 2.34281 7.97347V5.27391ZM2.34281 17.9971V15.8641C3.87718 15.8641 5.1187 17.0815 5.187 18.6052C4.1812 18.5244 3.24102 18.3235 2.34281 17.9971ZM14.4857 15.0855C12.5129 15.0855 10.9142 13.1663 10.9142 10.7998C10.9142 8.43284 12.5133 6.51409 14.4857 6.51409C16.458 6.51409 18.0571 8.43284 18.0571 10.7998C18.0571 13.1672 16.4575 15.0855 14.4857 15.0855ZM26.6285 16.3257C25.8464 16.1297 25.0343 16.0199 24.2035 15.9489C24.4656 14.7846 25.4312 13.9007 26.6285 13.7489V16.3257ZM26.6285 5.78507C25.2495 5.61052 24.1794 4.45918 24.137 3.0373C25.0093 3.13418 25.8375 3.31543 26.6285 3.60248V5.78507Z" fill="black"/>
</svg>
