<svg width="29" height="29" viewBox="0 0 29 29" fill="none" xmlns="http://www.w3.org/2000/svg">
<path d="M2.0969 17.0121H3.62464C4.14534 17.0121 4.6314 17.3594 4.80506 17.8454C4.9092 18.1232 5.01334 18.4356 5.15236 18.7134C5.39552 19.1995 5.29113 19.7551 4.9092 20.137L3.83294 21.2133C3.34688 21.6993 3.34688 22.4978 3.83294 22.9839L5.98552 25.1365C6.47159 25.6226 7.2701 25.6226 7.75618 25.1365L8.83244 24.0602C9.21437 23.6783 9.76994 23.6088 10.256 23.8171C10.5338 23.9558 10.8116 24.0602 11.124 24.1644C11.6101 24.338 11.9574 24.8241 11.9574 25.3448V26.8725C11.9574 27.5669 12.5129 28.1225 13.2073 28.1225H16.2627C16.957 28.1225 17.5126 27.5669 17.5126 26.8725V25.3448C17.5126 24.8241 17.8599 24.338 18.346 24.1644C18.6238 24.0602 18.9362 23.9561 19.214 23.8171C19.7 23.5739 20.2556 23.6783 20.6375 24.0602L21.7138 25.1365C22.1999 25.6226 22.9984 25.6226 23.4845 25.1365L25.637 22.9839C26.1231 22.4978 26.1231 21.6993 25.637 21.2133L24.5608 20.1367C24.1789 19.7548 24.1093 19.1992 24.3176 18.7132C24.4564 18.4354 24.5608 18.1576 24.6649 17.8452C24.8386 17.3591 25.3247 17.0118 25.8453 17.0118H27.3731C28.0674 17.0118 28.623 16.4562 28.623 15.7619V12.7065C28.623 12.0121 28.0674 11.4566 27.3731 11.4566H25.8453C25.3246 11.4566 24.8386 11.1093 24.6649 10.6232C24.5608 10.3454 24.4566 10.033 24.3176 9.75522C24.0745 9.26915 24.1789 8.71356 24.5608 8.33164L25.637 7.25538C26.1231 6.76931 26.1231 5.9708 25.637 5.48472L23.4845 3.33214C22.9984 2.84608 22.1999 2.84608 21.7138 3.33214L20.6373 4.40865C20.2554 4.79058 19.6998 4.86009 19.2137 4.65181C18.9359 4.51303 18.6581 4.40865 18.3457 4.30451C17.8596 4.09623 17.5126 3.64477 17.5126 3.08919V1.56144C17.5126 0.867105 16.957 0.311523 16.2626 0.311523H13.2072C12.5129 0.311523 11.9573 0.867099 11.9573 1.56144V3.08919C11.9573 3.60989 11.61 4.09594 11.124 4.2696C10.8462 4.37374 10.5337 4.47789 10.256 4.6169C9.76989 4.86006 9.2143 4.75568 8.83238 4.37374L7.75612 3.29749C7.27005 2.81142 6.47154 2.81142 5.98546 3.29749L3.83288 5.45006C3.34681 5.93613 3.34681 6.73464 3.83288 7.22072L4.90914 8.29698C5.29107 8.67891 5.36057 9.23448 5.1523 9.72056C5.01352 9.99835 4.90914 10.2761 4.805 10.5886C4.59672 11.1097 4.14526 11.4568 3.58967 11.4568H2.06193C1.36759 11.4568 0.812012 12.0124 0.812012 12.7067V15.7622C0.846887 16.4565 1.40246 17.0121 2.09684 17.0121H2.0969ZM14.735 9.72087C17.2348 9.72087 19.2486 11.7346 19.2486 14.2345C19.2486 16.7344 17.2349 18.7482 14.735 18.7482C12.2351 18.7482 10.2213 16.7344 10.2213 14.2345C10.2213 11.7346 12.2351 9.72087 14.735 9.72087V9.72087Z" fill="#251605"/>
</svg>
