<svg width="32" height="20" viewBox="0 0 32 20" fill="none" xmlns="http://www.w3.org/2000/svg">
<path d="M31.1941 4.58747L17.3934 0.327165C16.6332 0.0940698 15.8205 0.0940698 15.0603 0.327165L1.13648 4.58747C0.68384 4.78068 0.389893 5.2251 0.389893 5.71716C0.389893 6.20922 0.68384 6.65408 1.13648 6.84685L3.59204 7.5959H3.59245C3.05184 8.25696 2.74146 9.07585 2.70816 9.92854C2.23415 10.1847 1.92911 10.6698 1.90403 11.2079C1.87895 11.7456 2.13754 12.2575 2.58524 12.5563L1.35725 18.2781H1.35766C1.30504 18.5153 1.36383 18.7636 1.51676 18.9523C1.66969 19.141 1.90032 19.25 2.14329 19.2479H4.93059C5.15095 19.2187 5.34951 19.0987 5.47777 18.917C5.60604 18.7349 5.6525 18.5079 5.60604 18.2905L4.37805 12.5686C4.82288 12.2755 5.0827 11.7715 5.06255 11.2395C5.04241 10.7071 4.74559 10.224 4.2798 9.9655C4.31967 9.22838 4.70118 8.55207 5.31128 8.13604L15.0357 11.1199C15.7946 11.3608 16.6098 11.3608 17.3687 11.1199L31.2305 6.85921C31.6885 6.6627 31.982 6.20883 31.9738 5.71099C31.9655 5.21313 31.6576 4.76914 31.1939 4.5874L31.1941 4.58747Z" fill="#251605"/>
<path d="M17.7985 12.6301C16.735 12.9602 15.5961 12.9602 14.5326 12.6301L7.32508 10.4199L6.61304 16.0559C6.61304 17.8241 10.8981 19.2481 16.1657 19.2481C21.4333 19.2481 25.7183 17.8237 25.7183 16.0559L25.0062 10.4199L17.7985 12.6301Z" fill="#251605"/>
</svg>
