<svg width="30" height="30" viewBox="0 0 30 30" fill="none" xmlns="http://www.w3.org/2000/svg">
<path d="M18.6679 11.4785L17.1738 18.4932L12.9973 15.0592C12.5052 13.9395 11.3897 13.1561 10.0889 13.1561H3.43382C1.67798 13.1561 0.254148 14.5799 0.254148 16.3355L0.253906 29.1869H13.2689V22.3148L14.5496 23.3683L26.51 24.0818L29.1317 11.773L18.6679 11.4785ZM25.9814 23.4092L23.8114 23.3489C24.6288 22.9243 25.1933 22.0798 25.1933 21.0958C25.1933 19.6885 24.0527 18.5485 22.6453 18.5485H17.8347L19.197 12.1513L28.3246 12.4078L25.9814 23.4092Z" fill="black"/>
<path d="M12.6278 6.11966C12.6278 9.35941 10.0015 11.9854 6.76175 11.9854C3.52225 11.9854 0.895996 9.35941 0.895996 6.11966C0.895996 2.87992 3.52225 0.253906 6.76175 0.253906C10.0015 0.253906 12.6278 2.87992 12.6278 6.11966" fill="black"/>
</svg>
